<mxfile host="app.diagrams.net" modified="2024-01-05T17:24:14.269Z" agent="Mozilla/5.0 (X11; Linux x86_64) AppleWebKit/537.36 (KHTML, like Gecko) Chrome/120.0.0.0 Safari/537.36" etag="akH7H7OBdjQ0ij5MVBre" version="22.1.16" type="device">
  <diagram id="UfOLLcJ2CGCOdIlwD1iP" name="Página-1">
    <mxGraphModel dx="1247" dy="671" grid="1" gridSize="10" guides="1" tooltips="1" connect="1" arrows="1" fold="1" page="1" pageScale="1" pageWidth="2339" pageHeight="3300" math="0" shadow="0">
      <root>
        <mxCell id="0" />
        <mxCell id="1" parent="0" />
        <mxCell id="gXvH4vb8uwQs9K-4ArXV-1" value="&lt;b&gt;&lt;font style=&quot;font-size: 14px;&quot;&gt;BaseEducacional.dbo.FNDebitos&lt;/font&gt;&lt;/b&gt;" style="text;html=1;align=center;verticalAlign=middle;resizable=0;points=[];autosize=1;strokeColor=none;fillColor=none;strokeWidth=13;" parent="1" vertex="1">
          <mxGeometry x="115" y="130" width="240" height="30" as="geometry" />
        </mxCell>
        <mxCell id="gXvH4vb8uwQs9K-4ArXV-2" value="&lt;font style=&quot;font-size: 14px;&quot;&gt;&lt;b&gt;INSERT&lt;/b&gt;&lt;/font&gt;" style="text;html=1;align=center;verticalAlign=middle;resizable=0;points=[];autosize=1;strokeColor=none;fillColor=none;" parent="1" vertex="1">
          <mxGeometry x="288" y="186.38" width="70" height="30" as="geometry" />
        </mxCell>
        <mxCell id="gXvH4vb8uwQs9K-4ArXV-3" value="" style="endArrow=classic;html=1;rounded=0;entryX=0.959;entryY=1.043;entryDx=0;entryDy=0;entryPerimeter=0;" parent="1" edge="1">
          <mxGeometry width="50" height="50" relative="1" as="geometry">
            <mxPoint x="280.5" y="218.41999999999996" as="sourcePoint" />
            <mxPoint x="379.5799999999999" y="217.66999999999996" as="targetPoint" />
          </mxGeometry>
        </mxCell>
        <mxCell id="gXvH4vb8uwQs9K-4ArXV-4" value="" style="group;fillColor=default;" parent="1" vertex="1" connectable="0">
          <mxGeometry x="197.5" y="160" width="75" height="104.12000000000006" as="geometry" />
        </mxCell>
        <mxCell id="gXvH4vb8uwQs9K-4ArXV-5" value="" style="shape=cylinder3;whiteSpace=wrap;html=1;boundedLbl=1;backgroundOutline=1;size=15;fillColor=default;" parent="gXvH4vb8uwQs9K-4ArXV-4" vertex="1">
          <mxGeometry y="42.125" width="75" height="48.125" as="geometry" />
        </mxCell>
        <mxCell id="gXvH4vb8uwQs9K-4ArXV-6" value="" style="shape=cylinder3;whiteSpace=wrap;html=1;boundedLbl=1;backgroundOutline=1;size=15;fillColor=default;" parent="gXvH4vb8uwQs9K-4ArXV-4" vertex="1">
          <mxGeometry y="24.0625" width="75" height="48.125" as="geometry" />
        </mxCell>
        <mxCell id="gXvH4vb8uwQs9K-4ArXV-7" value="" style="shape=cylinder3;whiteSpace=wrap;html=1;boundedLbl=1;backgroundOutline=1;size=15;fillColor=default;" parent="gXvH4vb8uwQs9K-4ArXV-4" vertex="1">
          <mxGeometry y="6" width="75" height="48.125" as="geometry" />
        </mxCell>
        <mxCell id="gXvH4vb8uwQs9K-4ArXV-8" value="" style="ellipse;whiteSpace=wrap;html=1;fillColor=default;" parent="gXvH4vb8uwQs9K-4ArXV-4" vertex="1">
          <mxGeometry x="60.875" y="56.741365740740775" width="5.625" height="4.90162037037037" as="geometry" />
        </mxCell>
        <mxCell id="gXvH4vb8uwQs9K-4ArXV-9" value="" style="ellipse;whiteSpace=wrap;html=1;fillColor=default;" parent="gXvH4vb8uwQs9K-4ArXV-4" vertex="1">
          <mxGeometry x="60.875" y="37.48094907407408" width="5.625" height="4.90162037037037" as="geometry" />
        </mxCell>
        <mxCell id="gXvH4vb8uwQs9K-4ArXV-10" value="" style="ellipse;whiteSpace=wrap;html=1;fillColor=default;" parent="1" vertex="1">
          <mxGeometry x="258.20833333333337" y="234.80386574074078" width="5.625" height="4.90162037037037" as="geometry" />
        </mxCell>
        <mxCell id="gXvH4vb8uwQs9K-4ArXV-11" style="edgeStyle=orthogonalEdgeStyle;rounded=0;orthogonalLoop=1;jettySize=auto;html=1;fontFamily=Helvetica;fontSize=16;fontColor=default;startSize=30;" parent="1" source="gXvH4vb8uwQs9K-4ArXV-12" edge="1">
          <mxGeometry relative="1" as="geometry">
            <mxPoint x="190" y="213.78500000000008" as="targetPoint" />
          </mxGeometry>
        </mxCell>
        <mxCell id="gXvH4vb8uwQs9K-4ArXV-12" value="" style="ellipse;whiteSpace=wrap;html=1;aspect=fixed;strokeColor=#82b366;align=center;verticalAlign=middle;fontFamily=Helvetica;fontSize=16;startSize=30;fillColor=#d5e8d4;" parent="1" vertex="1">
          <mxGeometry x="100" y="192.76999999999998" width="42.03" height="42.03" as="geometry" />
        </mxCell>
        <mxCell id="gXvH4vb8uwQs9K-4ArXV-13" value="&lt;font style=&quot;font-size: 10px;&quot;&gt;Débito&lt;/font&gt;" style="text;html=1;align=center;verticalAlign=middle;resizable=0;points=[];autosize=1;strokeColor=none;fillColor=none;" parent="1" vertex="1">
          <mxGeometry x="298.8299999999999" y="216.38" width="50" height="30" as="geometry" />
        </mxCell>
        <mxCell id="gXvH4vb8uwQs9K-4ArXV-14" value="" style="group" parent="1" vertex="1" connectable="0">
          <mxGeometry x="382.21000000000004" y="138.77999999999997" width="405" height="150" as="geometry" />
        </mxCell>
        <mxCell id="gXvH4vb8uwQs9K-4ArXV-15" value="" style="rhombus;whiteSpace=wrap;html=1;strokeColor=default;align=center;verticalAlign=middle;fontFamily=Helvetica;fontSize=16;fontColor=default;startSize=30;fillColor=default;" parent="gXvH4vb8uwQs9K-4ArXV-14" vertex="1">
          <mxGeometry y="7.281553398058253" width="265.5784403669724" height="142.71844660194174" as="geometry" />
        </mxCell>
        <mxCell id="gXvH4vb8uwQs9K-4ArXV-16" value="Existe um pedido &lt;br&gt;de venda com o&lt;br&gt;mesmo &lt;b&gt;agrupador&lt;/b&gt;&lt;br&gt;?" style="text;html=1;align=center;verticalAlign=middle;resizable=0;points=[];autosize=1;strokeColor=none;fillColor=none;fontSize=16;fontFamily=Helvetica;fontColor=default;" parent="gXvH4vb8uwQs9K-4ArXV-14" vertex="1">
          <mxGeometry x="52.79196759542331" y="40.568758617060766" width="160" height="90" as="geometry" />
        </mxCell>
        <mxCell id="gXvH4vb8uwQs9K-4ArXV-17" value="Não" style="text;html=1;align=center;verticalAlign=middle;resizable=0;points=[];autosize=1;strokeColor=none;fillColor=none;" parent="gXvH4vb8uwQs9K-4ArXV-14" vertex="1">
          <mxGeometry x="267.7884403669724" y="51.216878980891714" width="50" height="30" as="geometry" />
        </mxCell>
        <mxCell id="gXvH4vb8uwQs9K-4ArXV-18" style="edgeStyle=orthogonalEdgeStyle;rounded=0;orthogonalLoop=1;jettySize=auto;html=1;exitX=0.5;exitY=1;exitDx=0;exitDy=0;" parent="1" source="gXvH4vb8uwQs9K-4ArXV-19" target="gXvH4vb8uwQs9K-4ArXV-22" edge="1">
          <mxGeometry relative="1" as="geometry" />
        </mxCell>
        <mxCell id="gXvH4vb8uwQs9K-4ArXV-19" value="Importa agendamento de débito no pedido de venda" style="whiteSpace=wrap;html=1;strokeColor=default;align=center;verticalAlign=middle;fontFamily=Helvetica;fontSize=16;fontColor=default;startSize=30;fillColor=default;" parent="1" vertex="1">
          <mxGeometry x="404" y="346" width="228" height="70" as="geometry" />
        </mxCell>
        <mxCell id="gXvH4vb8uwQs9K-4ArXV-20" style="edgeStyle=orthogonalEdgeStyle;rounded=0;orthogonalLoop=1;jettySize=auto;html=1;exitX=0.5;exitY=1;exitDx=0;exitDy=0;entryX=0.486;entryY=-0.025;entryDx=0;entryDy=0;entryPerimeter=0;" parent="1" source="gXvH4vb8uwQs9K-4ArXV-15" target="gXvH4vb8uwQs9K-4ArXV-19" edge="1">
          <mxGeometry relative="1" as="geometry" />
        </mxCell>
        <mxCell id="gXvH4vb8uwQs9K-4ArXV-21" value="Sim" style="text;html=1;align=center;verticalAlign=middle;resizable=0;points=[];autosize=1;strokeColor=none;fillColor=none;" parent="1" vertex="1">
          <mxGeometry x="470.79999999999995" y="296" width="40" height="30" as="geometry" />
        </mxCell>
        <mxCell id="gXvH4vb8uwQs9K-4ArXV-22" value="" style="ellipse;whiteSpace=wrap;html=1;aspect=fixed;strokeColor=#ae4132;align=center;verticalAlign=middle;fontFamily=Helvetica;fontSize=16;startSize=30;fillColor=#fad9d5;" parent="1" vertex="1">
          <mxGeometry x="496.99" y="450" width="42.03" height="42.03" as="geometry" />
        </mxCell>
        <mxCell id="gXvH4vb8uwQs9K-4ArXV-23" style="edgeStyle=orthogonalEdgeStyle;rounded=0;orthogonalLoop=1;jettySize=auto;html=1;exitX=0.5;exitY=1;exitDx=0;exitDy=0;entryX=1;entryY=0.5;entryDx=0;entryDy=0;" parent="1" source="gXvH4vb8uwQs9K-4ArXV-24" target="gXvH4vb8uwQs9K-4ArXV-19" edge="1">
          <mxGeometry relative="1" as="geometry" />
        </mxCell>
        <mxCell id="gXvH4vb8uwQs9K-4ArXV-24" value="Importa pedido de venda&lt;br&gt;com o mesmo agrupador" style="whiteSpace=wrap;html=1;strokeColor=default;align=center;verticalAlign=middle;fontFamily=Helvetica;fontSize=16;fontColor=default;startSize=30;fillColor=default;" parent="1" vertex="1">
          <mxGeometry x="710" y="182.41999999999996" width="190" height="70" as="geometry" />
        </mxCell>
        <mxCell id="gXvH4vb8uwQs9K-4ArXV-25" style="edgeStyle=orthogonalEdgeStyle;rounded=0;orthogonalLoop=1;jettySize=auto;html=1;exitX=1;exitY=0.5;exitDx=0;exitDy=0;entryX=0;entryY=0.5;entryDx=0;entryDy=0;" parent="1" source="gXvH4vb8uwQs9K-4ArXV-15" target="gXvH4vb8uwQs9K-4ArXV-24" edge="1">
          <mxGeometry relative="1" as="geometry" />
        </mxCell>
      </root>
    </mxGraphModel>
  </diagram>
</mxfile>
